<svg xmlns="http://www.w3.org/2000/svg" width="100" height="100" viewBox="0 0 496.002 496">
  <path d="M469.656 290.344a7.997 7.997 0 0 0-11.312 0L452 296.688 439.312 284l6.344-6.344a7.99 7.99 0 0 0 0-11.312L347.312 168l10.344-10.344a7.99 7.99 0 0 0 0-11.312l-24-24a7.997 7.997 0 0 0-11.312 0l-88 88a7.99 7.99 0 0 0 0 11.312l24 24c1.558 1.563 3.61 2.344 5.656 2.344s4.098-.781 5.656-2.344L280 235.312l40 40v68.899c-9.656 7.309-16 18.781-16 31.789 0 12.227 5.633 23.05 14.297 30.395l-75.953 75.949A7.997 7.997 0 0 0 248 496h48c2.121 0 4.16-.84 5.656-2.344L320 475.313V488c0 4.426 3.586 8 8 8h32c4.414 0 8-3.574 8-8v-12.687l18.344 18.343A7.978 7.978 0 0 0 392 496h48a7.997 7.997 0 0 0 5.656-13.656l-75.953-75.95C378.367 399.052 384 388.228 384 376c0-13.016-6.344-24.488-16-31.79v-20.897l10.344 10.343c1.558 1.563 3.61 2.344 5.656 2.344s4.098-.781 5.656-2.344l6.344-6.344L408.688 340l-6.344 6.344a7.99 7.99 0 0 0 0 11.312l24 24c1.558 1.563 3.61 2.344 5.656 2.344s4.098-.781 5.656-2.344l56-56a7.99 7.99 0 0 0 0-11.312zM264 228.688 251.312 216 328 139.312 340.688 152zM344 352c13.23 0 24 10.77 24 24 0 13.234-10.77 24-24 24s-24-10.766-24-24c0-13.23 10.77-24 24-24zm-51.313 128h-25.375L320 427.312v25.375zM336 480v-64.809c2.586.532 5.266.809 8 .809s5.414-.277 8-.809V480zm59.313 0L368 452.687v-25.375L420.688 480zM352 336.809a40.038 40.038 0 0 0-16 0v-45.497l16 16zM371.313 304l18.343-18.344-11.312-11.312L360 292.688 315.312 248l18.344-18.344-11.312-11.312L304 236.688 291.312 224 336 179.312 428.688 272 384 316.688zm36 12L428 295.312 440.688 308 420 328.688zM432 364.688 419.312 352 464 307.312 476.688 320zM128 88c13.23 0 24-10.766 24-24 0-13.23-10.77-24-24-24s-24 10.77-24 24c0 13.234 10.77 24 24 24zm0-32c4.406 0 8 3.586 8 8 0 4.418-3.594 8-8 8s-8-3.582-8-8c0-4.414 3.594-8 8-8zm0 0"/>
  <path d="M64.824 135.96C80.024 168.978 113.336 192 152 192c38.672 0 71.992-23.031 87.184-56.055C275.176 128.512 304 115.585 304 96c0-21.816-34.113-33.71-64.848-40.008C223.945 23 190.648 0 152 0S80.055 23 64.848 55.992C34.336 62.25 0 74.137 0 96c0 19.16 27.594 32.32 64.824 39.96zM152 176c-28.105 0-52.816-14.598-67.09-36.574 17.723 2.535 36.684 3.992 55.45 4.406C145.886 153.442 156.144 160 168 160c12.586 0 23.39-7.367 28.61-17.95a417.533 417.533 0 0 0 22.468-2.609C204.808 161.411 180.098 176 152 176zm0-48c0-8.824 7.176-16 16-16s16 7.176 16 16-7.176 16-16 16-16-7.176-16-16zm136-32c0 5.387-13.078 14.938-42.703 22.242C247 111.09 248 103.664 248 96s-1-15.086-2.703-22.238C276.129 81.336 288 91.059 288 96zM152 16c44.113 0 80 35.89 80 80 0 9.082-1.594 17.785-4.398 25.93-8.329 1.465-17.594 2.734-27.84 3.75C198.55 109.129 184.848 96 168 96c-17.543 0-31.809 14.2-31.969 31.703-23.129-.703-43.07-2.812-59.625-5.758C73.602 113.793 72 105.09 72 96c0-44.11 35.887-80 80-80zM58.703 73.777C57 80.922 56 88.336 56 96c0 7.656 1 15.074 2.695 22.21C30.512 111.228 16 102.04 16 96c0-4.918 11.871-14.648 42.703-22.223zM128 256c0-35.285-28.71-64-64-64S0 220.715 0 256c0 35.29 28.71 64 64 64s64-28.71 64-64zm-16 0h-12l-20-26.664V210.8c18.617 6.61 32 24.344 32 45.199zm-80-35.68v25.457l-14.098 23.489C16.687 265.05 16 260.609 16 256c0-14.168 6.207-26.879 16-35.68zm-5.45 65.64 20.305-33.839A7.946 7.946 0 0 0 48 248v-37.2c5.016-1.777 10.383-2.8 16-2.8v24c0 1.738.559 3.418 1.602 4.8l24 32A7.981 7.981 0 0 0 96 272h13.2c-6.606 18.617-24.345 32-45.2 32-15.137 0-28.64-7.062-37.45-18.04zm0 0"/>
  <path d="M56 272h16v16H56zm212.902 74.2C289.328 341.073 304 332.464 304 320c0-17.375-27.32-25.2-45.617-28.488C248.105 279.594 232.938 272 216 272s-32.113 7.594-42.383 19.512C155.32 294.8 128 302.625 128 320c0 12.465 14.672 21.074 35.098 26.2C170.672 368.16 191.496 384 216 384s45.328-15.84 52.902-37.8zm19.106-26.317c-.559 2.031-5.945 5.574-16.047 8.82.008-.23.039-.46.039-.703 0-6.168-1.04-12.094-2.895-17.656 14.063 4.043 18.575 8.52 18.903 9.539zM216 288c22.055 0 40 17.945 40 40 0 1.617-.29 3.152-.48 4.723C244.922 334.656 231.793 336 216 336s-28.922-1.344-39.52-3.262c-.19-1.578-.48-3.113-.48-4.738 0-22.055 17.945-40 40-40zm-72.008 32.129c.328-1.2 4.848-5.727 18.903-9.777C161.039 315.906 160 321.832 160 328c0 .258.031.496.04.754-10.102-3.227-15.497-6.703-16.048-8.625zM216 368c-13.992 0-26.29-7.254-33.441-18.168C193.336 351.273 204.769 352 216 352s22.664-.727 33.441-2.168C242.29 360.746 229.992 368 216 368zm208-200c13.23 0 24 10.77 24 24 0 4.426 3.586 8 8 8s8-3.574 8-8c0-13.23 10.77-24 24-24 4.414 0 8-3.574 8-8a8 8 0 0 0-8-8c-13.23 0-24-10.766-24-24a8 8 0 0 0-16 0c0 13.234-10.77 24-24 24a8 8 0 0 0-8 8c0 4.426 3.586 8 8 8zm32-16.023a40.35 40.35 0 0 0 8.023 8.023 40.453 40.453 0 0 0-8.023 8.023 40.453 40.453 0 0 0-8.023-8.023 40.35 40.35 0 0 0 8.023-8.023zM344 72c13.23 0 24 10.77 24 24 0 4.426 3.586 8 8 8s8-3.574 8-8c0-13.23 10.77-24 24-24 4.414 0 8-3.574 8-8a8 8 0 0 0-8-8c-13.23 0-24-10.766-24-24a8 8 0 0 0-16 0c0 13.234-10.77 24-24 24a8 8 0 0 0-8 8c0 4.426 3.586 8 8 8zm32-16.023A40.35 40.35 0 0 0 384.023 64 40.453 40.453 0 0 0 376 72.023 40.453 40.453 0 0 0 367.977 64 40.35 40.35 0 0 0 376 55.977zM136 384c-13.23 0-24-10.766-24-24a8 8 0 0 0-16 0c0 13.234-10.77 24-24 24a8 8 0 0 0-8 8c0 4.426 3.586 8 8 8 13.23 0 24 10.77 24 24 0 4.426 3.586 8 8 8s8-3.574 8-8c0-13.23 10.77-24 24-24 4.414 0 8-3.574 8-8a8 8 0 0 0-8-8zm-32 16.023A40.453 40.453 0 0 0 95.977 392a40.35 40.35 0 0 0 8.023-8.023 40.35 40.35 0 0 0 8.023 8.023 40.453 40.453 0 0 0-8.023 8.023zm0 0"/>
</svg>