<svg xmlns="http://www.w3.org/2000/svg" width="100" height="100" viewBox="0 0 512 512">
  <path d="M440.371 0H71.629C58.653 0 48.097 10.556 48.097 23.532v440.887c0 12.976 10.557 23.532 23.532 23.532h32.581V504.5a7.497 7.497 0 0 0 3.961 6.612 7.496 7.496 0 0 0 7.699-.372l19.889-13.259 19.888 13.259a7.495 7.495 0 0 0 7.7.373 7.502 7.502 0 0 0 3.961-6.613v-48.613h265.564v17.064h-241a7.5 7.5 0 0 0 0 15h256.516a7.5 7.5 0 0 0 0-15h-.516V422.59c9.308-3.139 16.032-11.946 16.032-22.3V23.532C463.903 10.556 453.347 0 440.371 0zM152.307 490.486l-12.388-8.259a7.5 7.5 0 0 0-8.32 0l-12.389 8.259v-34.599h33.097zm-64.646-49.599a7.5 7.5 0 0 0 0 15h16.548v17.064h-32.58c-4.705 0-8.532-3.828-8.532-8.532v-32.064c0-4.705 3.828-8.532 8.532-8.532h361.242v17.064zm361.242-40.597c0 4.705-3.828 8.532-8.532 8.532H95.161v-16.549a7.5 7.5 0 0 0-15 0v16.549h-8.532c-3.009 0-5.885.574-8.532 1.608V23.532c0-4.705 3.828-8.532 8.532-8.532h8.532v345.21a7.5 7.5 0 0 0 15 0V15h345.21c4.705 0 8.532 3.828 8.532 8.532z"/>
  <path d="M391.692 206.912c-1.055-8.381-2.032-13.968-3.527-19.931a47.54 47.54 0 0 0 27.641-43.207c0-26.236-21.345-47.581-47.581-47.581a47.54 47.54 0 0 0-35.858 16.302c-.157-.092-.309-.189-.467-.281a7.5 7.5 0 0 0-10.248 2.737 7.5 7.5 0 0 0 2.737 10.247c27.765 16.062 46.476 44.003 51.188 75.204H343.07c-1.145-15.156-3.946-29.576-8.366-42.951a7.5 7.5 0 0 0-14.242 4.708c3.928 11.884 6.447 24.722 7.551 38.243h-48.479v-40.597a7.5 7.5 0 0 0-15 0v40.597h-48.479c1.104-13.523 3.623-26.362 7.551-38.244a7.5 7.5 0 0 0-4.767-9.475 7.499 7.499 0 0 0-9.475 4.767c-4.42 13.373-7.222 27.793-8.367 42.952H168.46c7.52-50.414 51.1-89.21 103.574-89.21 7.571 0 15.125.811 22.449 2.41a7.5 7.5 0 0 0 3.199-14.655 120.46 120.46 0 0 0-25.648-2.755c-21.984 0-42.6 5.962-60.325 16.346-8.989-10.304-22.062-16.346-35.868-16.346-26.236 0-47.581 21.344-47.581 47.581 0 18.868 10.861 35.509 27.595 43.195-1.481 5.943-3.166 17.18-3.481 19.943L136.34 327.154a7.5 7.5 0 0 0 14.868 1.983l9.292-69.687c17.451 44.557 60.865 76.196 111.532 76.196 50.668 0 94.082-31.639 111.533-76.196l9.292 69.687a7.5 7.5 0 1 0 14.868-1.983zM160.46 172.496c-10.485-5.574-17.201-16.452-17.201-28.722 0-17.965 14.616-32.581 32.581-32.581 8.821 0 17.207 3.606 23.293 9.823-17.171 13.221-30.669 30.984-38.673 51.48zm111.572 148.149c-57.746 0-104.726-46.98-104.726-104.726 0-.173.006-.344.007-.516H376.75c.001.172.009.344.009.516-.001 57.747-46.981 104.726-104.727 104.726zm111.523-148.114c-7.889-20.208-21.174-38.136-38.597-51.561a32.554 32.554 0 0 1 23.268-9.776c17.965 0 32.581 14.615 32.581 32.581a32.555 32.555 0 0 1-17.252 28.756z"/>
  <path d="M253.38 246.923c-6.665 2.773-13.786 3.354-20.594 1.678-6.808-1.675-12.846-5.494-17.462-11.044a7.5 7.5 0 0 0-11.532 9.592c6.681 8.032 15.468 13.571 25.41 16.017a47.286 47.286 0 0 0 11.314 1.376c6.303 0 12.604-1.264 18.627-3.771a7.5 7.5 0 0 0-5.763-13.848zm85.923-10.336a7.5 7.5 0 0 0-10.562.97c-4.616 5.55-10.654 9.369-17.462 11.044-6.807 1.676-13.928 1.095-20.593-1.678a7.5 7.5 0 0 0-5.764 13.849c6.024 2.507 12.323 3.771 18.627 3.771a47.28 47.28 0 0 0 11.314-1.376c9.943-2.447 18.729-7.986 25.41-16.018a7.5 7.5 0 0 0-.97-10.562z"/>
</svg>