<svg xmlns="http://www.w3.org/2000/svg" xml:space="preserve" width="20" style="enable-background:new 0 0 512 512" viewBox="0 0 512 512">
  <path d="M145.174 143.024c-10.871 31.018-17.039 63.72-18.429 97.929h114.467v-97.929h-96.038zm49.745-91.933c-14.926 19.671-27.419 40.325-37.488 61.88h83.781V1.183c-12.869 11.329-29.643 27.964-46.293 49.908zM25.642 143.024C10.739 173.351 1.977 206.509 0 240.953h96.687c1.296-33.784 6.976-66.593 16.944-97.929H25.642zm101.129 127.981c1.551 36.826 8.691 69.507 18.677 97.929h95.764v-97.929H126.771zm30.898 127.982a339.205 339.205 0 0 0 37.973 62.832c16.489 21.576 32.927 37.872 45.57 48.999v-111.83h-83.543zm208.883-255.963h-95.286v97.929h113.963c-1.551-36.827-8.692-69.508-18.677-97.929zM96.687 271.005H0c1.977 34.444 10.739 67.602 25.642 97.929h87.989c-9.968-31.335-15.648-64.145-16.944-97.929zM316.356 50.14c-16.28-21.304-32.513-37.463-45.092-48.579v111.411h83.065a339.084 339.084 0 0 0-37.973-62.832zM74.664 74.642a259.134 259.134 0 0 0-31.616 38.328h81.631v.001c12.041-28.673 27.844-55.898 47.086-81.079a381.104 381.104 0 0 1 20.272-24.353c-44.026 11.255-84.4 34.131-117.373 67.103zm97.101 405.423c-19.243-25.181-35.045-52.406-47.086-81.079H43.048a259.082 259.082 0 0 0 31.616 38.328c32.974 32.973 73.348 55.849 117.373 67.102a380.21 380.21 0 0 1-20.272-24.351zm215.556-81.077c-12.041 28.672-27.844 55.897-47.086 81.078a380.518 380.518 0 0 1-20.272 24.352c44.026-11.254 84.4-34.13 117.373-67.102a259.134 259.134 0 0 0 31.616-38.328h-81.631zm-116.056-.001v111.366c12.807-11.32 29.371-27.815 45.815-49.486 14.926-19.672 27.419-40.325 37.488-61.88h-83.303zM437.336 74.643C404.362 41.67 363.988 18.794 319.963 7.541a380.186 380.186 0 0 1 20.272 24.352c19.243 25.181 35.045 52.406 47.086 81.079h81.631a259.1 259.1 0 0 0-31.616-38.329zm49.022 68.381H398.37c9.967 31.336 15.648 64.146 16.944 97.929H512c-1.977-34.444-10.739-67.602-25.642-97.929zM271.265 271.005v97.929h95.561c10.872-31.018 17.039-63.72 18.429-97.929h-113.99zm144.048 0c-1.296 33.784-6.976 66.593-16.944 97.929h87.989c14.903-30.327 23.664-63.485 25.642-97.929h-96.687z"/>
</svg>