<svg xmlns="http://www.w3.org/2000/svg" width="100" height="100" viewBox="0 -9 478 478">
  <path d="M471 283.688H179.8V256.09l25.481-16.95a6.997 6.997 0 0 0 2.82-7.85 6.999 6.999 0 0 0-6.699-4.978h-80.93a6.998 6.998 0 0 0-6.683 4.977 6.997 6.997 0 0 0 2.813 7.844l25.476 16.949v27.598H7a7 7 0 0 0-7 7v161.562a7 7 0 0 0 7 7.004h464c3.867 0 7-3.137 7-7V290.687c0-3.863-3.133-7-7-7zm-7 134.19c-22.438 3.25-106.512 13.68-185.46.524-96.97-16.16-175.696-21.414-264.517 1.746V368.32c30 19.668 66.461 23.89 95.903 25.2l.617-14c-30.219-1.348-68.211-5.895-96.52-28.524v-24.238c26.204.668 49.805 12.96 74.692 25.965 27.414 14.324 55.754 29.136 90.828 30.754 2.043.093 4.082.14 6.121.14 38.059 0 75.86-15.918 109.41-30.047 26.403-11.129 51.375-21.636 72-22.566 24.52-1.125 45.66 6.855 64.32 13.879a154.12 154.12 0 0 0 32.626 9.742v33.047c-69.88 15.539-234.977-.488-236.68-.656l-1.375 13.93c4.68.464 77.816 7.566 147.527 7.566 33.684 0 66.551-1.668 90.524-6.532zm-314.938-120.19H154a133.456 133.456 0 0 0 45.602 23.648l3.632-13.524a125.93 125.93 0 0 1-24.324-10.125h113.563c-4.403 2.122-8.828 4.36-13.297 6.622-20 10.136-40.668 20.625-68.309 25.445-34.828 6.062-51.543-4.691-74.687-19.602-6.239-4-12.899-8.277-20.332-12.476zm7.008-38.356h4.868v-14h-9.75l-7.555-5.027h34.605l-9.316 6.199a7 7 0 0 0-3.121 5.828v31.356h-9.735zm-73.02 38.356a232.025 232.025 0 0 1 45.552 24.25c19.347 12.457 36.554 23.535 63.824 23.535 6.988-.04 13.965-.684 20.847-1.926 29.7-5.184 52.293-16.637 72.235-26.75 20.215-10.246 37.676-19.106 57.668-19.106h120.8v42.801a160.93 160.93 0 0 1-27.695-8.707c-19.922-7.496-42.508-16-69.879-14.758-23.105 1.043-49.199 12-76.797 23.641-35.644 15.012-72.53 30.52-109.457 28.828-31.98-1.476-58.925-15.562-84.988-29.2-26.531-13.862-51.703-26.937-81.176-27.558v-15.05zM14.013 445.25v-10.637c88.164-23.734 163.285-18.894 262.215-2.398a541.05 541.05 0 0 0 87.82 6.644 746.958 746.958 0 0 0 99.941-6.847v13.234zM308.2 375.047l-3.129-13.649c35.711-8.191 87.438-16.5 124.282 5.875l-7.262 11.97c-32.504-19.735-80.578-11.848-113.89-4.196zM201.102 158.16a6.99 6.99 0 0 0 9.898 0l27.922-27.918a7.002 7.002 0 0 0 2.05-4.949v-6.957h6.954a6.993 6.993 0 0 0 4.945-2.05l6.824-6.825 112.47 112.465a46.865 46.865 0 0 1 10.343 15.597l5.02 12.383a32.402 32.402 0 0 0 22.28 19.235c2.485.613 5.04.921 7.598.925a30.094 30.094 0 0 0 19.602-7.203c.312-.265.586-.5 14.695-14.57a16.515 16.515 0 0 0 0-23.383L297.98 71.18l1.06-1.059c5.831-5.57 15.01-5.57 20.843 0l5.832 5.832a7.002 7.002 0 0 0 9.902 0l13.117-13.121a6.99 6.99 0 0 0 0-9.898l-39.101-39.102c-18.48-18.441-48.406-18.441-66.887 0l-1.059 1.063-8.398-8.403a7.002 7.002 0 0 0-9.902 0l-28.399 28.403a6.995 6.995 0 0 0 0 9.898l8.399 8.398-6.785 6.82a7.005 7.005 0 0 0-2.055 4.95v6.957h-6.961c-1.86 0-3.637.738-4.95 2.05l-27.921 27.919a6.995 6.995 0 0 0 0 9.898zm241.433 78.426a2.5 2.5 0 0 1-.738 1.777c-5.77 5.754-13.305 13.254-13.906 13.832a16.426 16.426 0 0 1-14.75 3.352 18.404 18.404 0 0 1-12.645-10.899l-5.02-12.378a60.711 60.711 0 0 0-13.05-19.856l18.5-18.504 40.875 40.903c.472.468.738 1.105.738 1.773zm-51.508-52.574-18.484 18.484L269.598 99.562l2.828-2.828 15.652-15.656zM209.867 39.836l18.485-18.484 3.441 3.437-18.504 18.504zM190.48 85.902h8.157l17.562 17.567 9.903-9.899-17.567-17.558v-8.16l44.098-44.098c13.012-12.98 34.07-12.98 47.082 0l34.156 34.152-3.223 3.223-.878-.883c-11.227-11.226-29.426-11.226-40.649 0l-6 6-16.05 16.047-22.06 22.055h-11.038a7 7 0 0 0-7 7v11.058l-20.922 20.918-36.489-36.512zm0 0"/>
</svg>