<svg xmlns="http://www.w3.org/2000/svg" width="100" height="100" viewBox="0 0 496 496">
  <path d="M463 0a32.984 32.984 0 0 0-17.129 4.793l-72.894 44.254C338.863 17.449 294.574 0 248 0 146.543 0 64 82.543 64 184c0 16.527 2.312 32.832 6.633 48.617l-46.266 28.086C9.336 269.832 0 286.414 0 304c0 13.23 10.77 24 24 24s24-10.77 24-24v-3.29l41.656-23.054C122.703 333.414 183.168 368 248 368c7.496 0 14.871-.504 22.137-1.375 3.175.809 6.437 1.375 9.863 1.375h104c13.23 0 24 10.77 24 24s-10.77 24-24 24H160c-22.055 0-40 17.945-40 40s17.945 40 40 40h232v-16H160c-13.23 0-24-10.77-24-24s10.77-24 24-24h224c22.055 0 40-17.945 40-40s-17.945-40-40-40h-61.098C387.122 323.258 432 258.793 432 184c0-29.473-7.145-58.473-20.586-84.465l67.563-37.398C489.48 56.328 496 45.266 496 33c0-18.191-14.809-33-33-33zm-55 193.238 7.32 4.227c-.695 8.672-2.074 17.129-4.03 25.383L384 207.098zm-40 23.098 38.688 22.336c-2.649 7.672-5.801 15.105-9.489 22.23L344 230.184zM296 344.93V23c8.246 2.457 16.23 5.648 24 9.336v303.23c-7.719 3.672-15.695 6.875-24 9.364zm40-26.985V290.23l27.215 15.715c-6.215 5.88-12.824 11.344-19.88 16.23zm0-46.191v-27.715l53.168 30.695a168.299 168.299 0 0 1-14.535 19.313zm0-221.7 7.305-4.214a168.818 168.818 0 0 1 15.297 11.937L336 71.497zM88 174.763l-7.32-4.227c.695-8.672 2.074-17.129 4.03-25.383l27.29 15.75zm40-23.098-38.688-22.336c2.649-7.672 5.801-15.105 9.489-22.23L152 137.816zm32-101.61V77.77l-27.215-15.715c6.215-5.88 12.824-11.344 19.88-16.23zm0 46.192v27.715l-53.168-30.695a168.299 168.299 0 0 1 14.535-19.313zm0 221.7-7.32 4.222c-7.055-4.855-13.727-10.273-19.993-16.168L160 290.23zm-79.441-120.41L160 151.671v26.68l-75.145 45.625a168.372 168.372 0 0 1-4.296-26.442zM32 291.288V304c0 4.406-3.594 8-8 8s-8-3.594-8-8c0-12.023 6.383-23.375 16.664-29.617L160 197.07v23.356zm128-52.57v33.043l-38.785 22.39a167.474 167.474 0 0 1-17.55-24.25zm56 110.144V56h-16v288.855a168.78 168.78 0 0 1-24-9.222V32.44c7.719-3.68 15.695-6.882 24-9.37V40h16V19.145c7.816-1.512 15.848-2.352 24-2.739V304h16V16.375c8.105.387 16.137 1.16 24 2.68v329.8c-2.945.57-5.953.961-8.953 1.368C262.238 346.672 256 338.063 256 328v-8h-16v8c0 9.031 3.129 17.29 8.2 23.992-.071 0-.137.008-.2.008-10.848 0-21.55-1.09-32-3.137zm190.832-219.617-15.719 9.074 8 13.856 12.246-7.07a168.08 168.08 0 0 1 4.032 25.374L336 216.328v-27.71l50.496-29.153-8-13.856L336 170.145v-28.856l61.426-34c3.644 7.094 6.812 14.422 9.406 21.957zm64.398-81.11L336 123V90.223l118.168-71.75A17 17 0 0 1 463 16c9.367 0 17 7.633 17 17.266 0 6.183-3.36 11.879-8.77 14.87zM408 480h16v16h-16zm0 0"/>
</svg>